<svg xmlns="http://www.w3.org/2000/svg" viewBox="0 0 64 64">
  <rect width="64" height="64" rx="13" fill="#0b0d10"/>
  <g fill="#ff8a3d">
    <rect x="23" y="23" width="18" height="18" rx="3"/>
    <circle cx="16" cy="16" r="3.2"/><circle cx="48" cy="16" r="3.2"/>
    <circle cx="16" cy="48" r="3.2"/><circle cx="48" cy="48" r="3.2"/>
    <rect x="28.4" y="12" width="2.9" height="7" rx="1.4"/><rect x="32.7" y="12" width="2.9" height="7" rx="1.4"/>
    <rect x="28.4" y="45" width="2.9" height="7" rx="1.4"/><rect x="32.7" y="45" width="2.9" height="7" rx="1.4"/>
    <rect x="12" y="28.4" width="7" height="2.9" rx="1.4"/><rect x="12" y="32.7" width="7" height="2.9" rx="1.4"/>
    <rect x="45" y="28.4" width="7" height="2.9" rx="1.4"/><rect x="45" y="32.7" width="7" height="2.9" rx="1.4"/>
  </g>
  <g stroke="#ff8a3d" stroke-width="2.2" stroke-linecap="round">
    <line x1="18.2" y1="18.2" x2="24" y2="24"/><line x1="45.8" y1="18.2" x2="40" y2="24"/>
    <line x1="18.2" y1="45.8" x2="24" y2="40"/><line x1="45.8" y1="45.8" x2="40" y2="40"/>
  </g>
</svg>
